<svg width="91" height="24" viewBox="0 0 91 24" fill="none" xmlns="http://www.w3.org/2000/svg">
<g clip-path="url(#clip0_1_3204)">
<path d="M6.23141 0.630615L0.225586 18.2276H3.754L5.45065 13.0927H10.3304L12.072 18.2276H15.6755L9.65473 0.630615H6.23141ZM9.47456 10.1648H6.32147L7.64279 6.29112C7.73284 6.02083 7.82296 5.76557 7.89804 5.51033C7.9881 5.7806 8.06318 6.05083 8.16827 6.33615L9.47456 10.1648Z" fill="white"/>
<path d="M21.6063 10.2099C19.9847 9.5643 19.8045 9.26401 19.8045 8.79858C19.8045 8.19795 20.3 7.83761 21.1108 7.83761C22.0567 7.83761 22.8074 8.21298 23.1678 8.43818L23.8585 8.87361L24.7743 6.08093L24.3539 5.81064C23.5582 5.28515 22.357 4.98486 21.1408 4.98486C18.4232 4.98486 16.4563 6.69653 16.4563 9.06881C16.4563 11.2459 18.3781 12.4021 19.9997 12.9876C21.6063 13.5882 21.7414 14.0086 21.7414 14.5191C21.7414 15.48 20.7354 15.6152 20.1349 15.6152C19.2039 15.6152 18.1979 15.2248 17.6274 14.8794L16.9367 14.4741L16.0359 17.3118L16.4713 17.567C17.4622 18.1526 18.7835 18.4829 20.0898 18.4829C23.0777 18.4829 25.0897 16.8013 25.0897 14.3089C25.0897 11.8014 23.0927 10.7654 21.6063 10.2099Z" fill="white"/>
<path d="M30.3897 2.19214L27.0265 3.21313V5.22508H25.2097V8.12289H27.0265V13.8735C27.0265 15.48 27.3418 16.6211 28.0174 17.3868C28.6781 18.0926 29.654 18.4979 30.7951 18.4979C31.8161 18.4979 32.5518 18.2877 32.8971 18.1676L33.3476 18.0175L33.1674 15.1047L32.3866 15.3299C32.1614 15.3899 31.8911 15.45 31.3356 15.45C30.9302 15.45 30.3747 15.45 30.3747 13.8134V8.12289H33.4226V5.22508H30.3897V2.19214Z" fill="white"/>
<path d="M41.6357 5.1051L41.0201 5.01501C40.8399 4.98498 40.6597 4.96997 40.4195 4.96997C39.3535 4.96997 38.3775 5.40539 37.6268 6.17113L37.5817 5.22522H34.4287L34.4737 5.90084C34.5338 6.90684 34.5788 8.04793 34.5788 9.51936V18.2278H37.9872V11.3511C37.9872 11.0358 38.0172 10.7055 38.0472 10.4803C38.3024 9.12902 39.1433 8.28816 40.2844 8.28816C40.5546 8.28816 40.7198 8.28816 40.8699 8.31822L41.6507 8.48336L41.6357 5.1051Z" fill="white"/>
<path d="M47.8366 4.98486C44.038 4.98486 41.3804 7.79258 41.3804 11.8315C41.3804 15.7653 43.9479 18.498 47.6415 18.498C50.7644 18.498 54.1127 16.3509 54.1127 11.6363C54.1277 7.7175 51.5452 4.98486 47.8366 4.98486ZM50.6744 11.7114C50.6744 13.9786 49.4432 15.6302 47.7616 15.6302C46.0799 15.6302 44.8637 13.9936 44.8637 11.7714C44.8637 10.33 45.4793 7.88264 47.8066 7.88264C50.0738 7.85264 50.6744 10.3751 50.6744 11.7114Z" fill="white"/>
<path d="M65.2988 2.02697C64.1873 1.02099 62.4908 0.510498 60.2988 0.510498C58.8273 0.510498 57.4308 0.6156 56.1397 0.825806L55.6143 0.915892V18.2276H58.9925V11.8014C59.3376 11.8315 59.6982 11.8465 60.0588 11.8465C62.3405 11.8465 64.2776 11.1408 65.5091 9.86455C66.4696 8.87358 66.9502 7.55232 66.9502 5.93072C66.9353 4.35422 66.3496 2.97288 65.2988 2.02697ZM63.5571 6.03586C63.5571 8.49821 61.3948 8.85861 60.1033 8.85861C59.6679 8.85861 59.3079 8.84358 59.0073 8.79855V3.51341C59.3376 3.46836 59.7885 3.45335 60.3588 3.45335C61.8005 3.45335 63.5571 3.90378 63.5571 6.03586Z" fill="white"/>
<path d="M77.2953 14.7744V10.3901C77.2953 6.89173 75.4781 4.98486 72.205 4.98486C70.6884 4.98486 69.097 5.40527 68.001 6.09595L67.5656 6.36618L68.4816 9.06881L69.1724 8.60338C69.8781 8.12293 70.8987 7.83761 71.8901 7.83761C72.5804 7.82258 73.0759 7.98778 73.4061 8.3031C73.6764 8.57333 73.8416 8.97876 73.9016 9.48921C71.2444 9.5643 69.3073 10.1949 68.1061 11.381C67.2804 12.2069 66.8599 13.2429 66.8599 14.489C66.8599 16.486 68.3016 18.498 71.0941 18.498C72.2804 18.498 73.3913 18.1226 74.2621 17.462L74.3524 18.2427H77.5804L77.4604 17.507C77.3553 16.7863 77.2953 15.8704 77.2953 14.7744ZM71.6199 15.6452C71.109 15.6452 70.2684 15.465 70.2684 14.2488C70.2684 13.7834 70.4033 13.408 70.7039 13.1228C71.0941 12.7324 71.9799 12.282 73.9621 12.2519V13.6482C73.9621 13.7533 73.9467 13.9336 73.9016 14.1137C73.6616 14.8194 72.9261 15.6452 71.6199 15.6452Z" fill="white"/>
<path d="M86.6793 5.2251L84.2016 12.5372C84.1416 12.7173 84.0816 12.9125 84.0216 13.0927C83.9616 12.9125 83.9016 12.7324 83.8267 12.5672L81.1239 5.2251H77.4153L82.0696 16.8914L82.085 16.9214C82.1599 17.0716 82.1901 17.1617 82.1901 17.1917C82.1599 17.2517 82.1147 17.3718 82.085 17.4469C81.6793 18.3028 81.0787 19.1136 80.4781 19.594L80.4633 19.609C79.7873 20.1946 79.097 20.4498 78.8119 20.5249L78.2113 20.7201L79.0821 23.6329L79.6376 23.5278C79.9827 23.4678 81.1839 23.1825 82.565 22.0264C84.217 20.5549 85.313 18.2277 86.7541 14.444L90.2827 5.2251H86.6793Z" fill="white"/>
<path d="M12.6576 5.46529C14.8497 3.22813 18.5733 1.89183 22.6122 1.89183C24.1887 1.89183 25.7202 2.08702 27.1766 2.49241L27.2967 2.52244L29.8793 1.74169L28.7231 1.29125C26.516 0.450437 23.9786 0 21.366 0C17.5673 0 14.0239 0.915886 11.3963 2.5825L11.1111 2.76267L12.2071 5.96074L12.6576 5.46529Z" fill="#20D4B2"/>
</g>
<defs>
<clipPath id="clip0_1_3204">
<rect width="90.2857" height="24" fill="white" transform="translate(-0.00292969)"/>
</clipPath>
</defs>
</svg>
