<svg width="25" height="24" viewBox="0 0 25 24" fill="none" xmlns="http://www.w3.org/2000/svg">
<g clip-path="url(#clip0_1_3214)">
<g clip-path="url(#clip1_1_3214)">
<g clip-path="url(#clip2_1_3214)">
<path d="M2.83197 0.705811H21.8496C22.3539 0.705811 22.8377 0.906196 23.1944 1.26287C23.5511 1.61956 23.7515 2.10332 23.7515 2.60774V21.6256C23.7515 22.13 23.5511 22.6137 23.1945 22.9704C22.8378 23.327 22.3541 23.5274 21.8496 23.5274H2.8317C2.32738 23.5274 1.84372 23.3271 1.48712 22.9704C1.13051 22.6138 0.930176 22.1301 0.930176 21.6258V2.60761C0.930176 2.35786 0.979361 2.11056 1.07494 1.87982C1.17051 1.64909 1.3106 1.43943 1.48719 1.26284C1.6638 1.08623 1.87345 0.946148 2.10419 0.850576C2.33493 0.755003 2.58222 0.705811 2.83197 0.705811Z" fill="#FDB913"/>
<path d="M21.85 0.705735C22.3543 0.705888 22.838 0.90633 23.1945 1.26299C23.5511 1.61965 23.7515 2.10333 23.7515 2.60767V21.6255C23.7515 22.1299 23.5512 22.6135 23.1945 22.9702C22.838 23.3268 22.3543 23.5272 21.85 23.5273H2.83214C2.58238 23.5273 2.33505 23.4782 2.10429 23.3827C1.87352 23.2871 1.66384 23.147 1.48723 22.9704C1.31062 22.7938 1.17055 22.5841 1.07499 22.3534C0.979438 22.1226 0.930283 21.8753 0.930343 21.6255V2.60767C0.93029 2.3579 0.979453 2.11057 1.075 1.8798C1.17056 1.64903 1.31064 1.43935 1.48725 1.26274C1.66385 1.08612 1.87353 0.94602 2.10429 0.850447C2.33505 0.754875 2.58237 0.705703 2.83214 0.705735H21.85ZM21.85 0.303223H2.83214C2.22118 0.303885 1.63543 0.546891 1.20343 0.978915C0.771425 1.41094 0.528458 1.99671 0.527832 2.60767V21.6255C0.528508 22.2364 0.7715 22.8222 1.20349 23.2542C1.63549 23.6862 2.22121 23.9291 2.83214 23.9298H21.85C22.4609 23.9291 23.0466 23.6861 23.4785 23.2541C23.9104 22.8221 24.1534 22.2364 24.154 21.6255V2.60767C24.1534 1.99674 23.9105 1.411 23.4786 0.978975C23.0466 0.546943 22.4609 0.303918 21.85 0.303223Z" fill="white"/>
<path d="M13.6725 12.3628L13.6707 8.27685L14.7372 8.02372V8.55937C14.7372 8.55937 15.0135 7.85497 15.6546 7.69147C15.7503 7.66057 15.8523 7.65375 15.9513 7.67152V8.7141C15.7593 8.71657 15.5695 8.7561 15.3924 8.83042C14.9983 8.98605 14.8 9.32565 14.8 9.84405L14.8007 12.1003L13.6725 12.3628Z" fill="#231F20"/>
<path d="M8.05005 13.6916C8.05005 13.6916 7.87665 13.4315 7.87665 12.5122V10.4777L7.32788 10.6082V9.77019L7.87792 9.64029V8.72664L9.01192 8.45874V9.37239L9.8133 9.18204V10.0192L9.01192 10.2094C9.01192 10.2094 9.01072 11.8763 9.01192 12.281C9.01192 13.223 9.26197 13.4039 9.26197 13.4039L8.05005 13.6916Z" fill="#231F20"/>
<path d="M9.93188 11.2607C9.93188 10.5344 10.0353 10.0044 10.2574 9.5977C10.5216 9.11507 10.9549 8.80052 11.5861 8.65682C12.8303 8.37392 13.2793 9.11035 13.2619 10.0978C13.2553 10.451 13.2569 10.623 13.2569 10.623L11.065 11.1382V11.1736C11.065 11.8635 11.2097 12.1909 11.6468 12.0982C12.0245 12.0185 12.1296 11.7819 12.1595 11.4893C12.1643 11.4422 12.1667 11.3222 12.1667 11.3222L13.1934 11.0761C13.1934 11.0761 13.1959 11.1602 13.1944 11.2545C13.1855 11.6466 13.0715 12.6191 11.6443 12.9566C10.2923 13.2775 9.93188 12.4519 9.93188 11.2607ZM11.6317 9.41792C11.2685 9.50035 11.078 9.85667 11.0697 10.4469L12.1723 10.1843C12.1742 10.1576 12.1745 10.0988 12.1742 10.0066C12.1723 9.56095 12.0346 9.32575 11.6317 9.41792Z" fill="#231F20"/>
<path d="M19.7897 8.87133C19.7473 7.62693 20.0701 6.63926 21.4585 6.32474C22.3433 6.12368 22.6794 6.35389 22.8496 6.57636C23.0131 6.78866 23.0764 7.07499 23.0764 7.47601L23.0773 7.54961L21.9911 7.80776C21.9911 7.80776 21.9903 7.66136 21.9903 7.65656C21.9911 7.18101 21.8589 7.00016 21.5134 7.08665C21.1027 7.18982 20.9368 7.57976 20.9368 8.35496C20.9368 8.63013 20.938 8.67948 20.938 8.71661C20.938 9.50441 21.0456 9.86508 21.5191 9.76593C21.9297 9.68111 21.9859 9.32043 21.9926 9.00431C21.9934 8.95466 21.9955 8.79581 21.9955 8.79581L23.08 8.53961C23.08 8.53961 23.0811 8.61971 23.0811 8.70873C23.0784 9.74178 22.5339 10.3929 21.5139 10.6302C20.1085 10.9596 19.8334 10.1476 19.7897 8.87133Z" fill="#231F20"/>
<path d="M16.0347 10.6136C16.0347 9.66701 16.5891 9.36761 17.4237 9.02231C18.1743 8.71189 18.1905 8.55776 18.1936 8.28799C18.1978 8.06089 18.0925 7.86664 17.7189 7.96189C17.5943 7.98701 17.4818 8.05346 17.3997 8.15051C17.3176 8.24749 17.2707 8.36944 17.2666 8.49649C17.2605 8.56616 17.2581 8.63621 17.2596 8.70619L16.2072 8.95466C16.2001 8.74496 16.2246 8.53541 16.2799 8.33299C16.4481 7.76696 16.9473 7.38613 17.809 7.18671C18.9285 6.92872 19.3018 7.42003 19.3032 8.18426V9.99401C19.3032 10.8693 19.4655 10.9975 19.4655 10.9975L18.4325 11.2419C18.3755 11.1225 18.3292 10.9984 18.294 10.8708C18.294 10.8708 18.0678 11.4408 17.2878 11.6241C16.4685 11.8173 16.0347 11.3096 16.0347 10.6136ZM18.1864 9.32104C18.0123 9.44306 17.8285 9.55076 17.6368 9.64286C17.2925 9.81109 17.1369 10.0187 17.1369 10.3383C17.1369 10.6152 17.3083 10.797 17.62 10.7199C17.9544 10.6356 18.1864 10.3237 18.1864 9.89029V9.32104Z" fill="#231F20"/>
<path d="M2.12052 16.5558C2.00262 16.5557 1.88693 16.5237 1.78565 16.4634C1.68437 16.403 1.60123 16.3165 1.54499 16.2128C1.48875 16.1093 1.46149 15.9923 1.46607 15.8745C1.47066 15.7567 1.50692 15.6423 1.57106 15.5434L1.57838 15.5339L1.59071 15.5306L3.13325 15.1665V16.3379L3.10925 16.3436C2.75933 16.4277 2.3411 16.5236 2.25501 16.5419C2.2108 16.5512 2.16572 16.5559 2.12052 16.5558Z" fill="#231F20"/>
<path d="M2.12052 18.0543C1.94695 18.0544 1.78046 17.9856 1.65765 17.8629C1.53483 17.7402 1.46575 17.5738 1.46558 17.4003C1.46522 17.2738 1.50189 17.15 1.57105 17.0441L1.57837 17.0331L1.59071 17.03L3.13324 16.666V17.8374L3.10925 17.8437C2.75934 17.9276 2.3411 18.0246 2.25501 18.0417C2.2107 18.0504 2.16565 18.0546 2.12052 18.0543Z" fill="#231F20"/>
<path d="M2.12053 19.5561C1.9469 19.556 1.78042 19.487 1.65762 19.3642C1.53482 19.2415 1.46575 19.075 1.46558 18.9014C1.46509 18.7749 1.50177 18.6511 1.57105 18.5453L1.57837 18.5334L3.13324 18.167V19.3385L3.10925 19.3447C2.73968 19.4337 2.3293 19.5264 2.25502 19.5428C2.21074 19.5516 2.16568 19.5561 2.12053 19.5561Z" fill="#231F20"/>
<path d="M1.93839 15.1204L1.93799 8.56565L3.13305 8.2832V14.8378L1.93839 15.1204Z" fill="#231F20"/>
<path d="M4.91504 14.5628C4.91504 14.3672 4.83736 14.1797 4.69909 14.0414C4.56082 13.9031 4.37328 13.8254 4.17773 13.8254C3.98219 13.8254 3.79465 13.9031 3.65638 14.0414C3.51811 14.1797 3.44043 14.3672 3.44043 14.5628L3.44165 20.6891C3.4423 21.2182 3.65267 21.7253 4.02664 22.0996C4.4006 22.4738 4.90767 22.6845 5.43672 22.6856C5.99487 22.6856 7.52387 22.6828 7.52387 22.6828L7.52455 20.127C7.52492 18.7307 7.52522 17.3093 7.52522 17.2769C7.52537 17.118 7.48634 16.9616 7.41154 16.8214C7.33673 16.6812 7.22848 16.5617 7.09639 16.4734L5.23621 15.21C5.23621 15.21 5.2358 17.9528 5.2358 18.0789C5.2358 18.121 5.21909 18.1613 5.18935 18.1911C5.1596 18.2209 5.11925 18.2375 5.07718 18.2375C5.03512 18.2375 4.99477 18.2209 4.96502 18.1911C4.93528 18.1613 4.91857 18.121 4.91857 18.0789C4.91857 18.0482 4.91504 14.9417 4.91504 14.5628Z" fill="#231F20"/>
<path d="M5.91097 9.99197C5.68492 10.0445 5.47288 10.1451 5.2893 10.287C5.10572 10.4289 4.95494 10.6088 4.84727 10.8144V10.3537L3.77124 10.6083L3.77246 13.5502C3.96121 13.4756 4.16693 13.4546 4.36687 13.4895C4.56681 13.5245 4.7532 13.614 4.90543 13.7483V11.8488C4.90543 11.3938 5.13184 11.0303 5.45531 10.959C5.69866 10.9056 5.90188 10.9927 5.90188 11.426L5.9027 14.1974L7.03607 13.9317V11C7.03607 10.2892 6.76235 9.79232 5.91097 9.99197Z" fill="#231F20"/>
<path d="M22.3782 5.79664C22.2396 5.79676 22.1041 5.75577 21.9887 5.67885C21.8735 5.60193 21.7836 5.49253 21.7305 5.36451C21.6773 5.2365 21.6635 5.09559 21.6904 4.95965C21.7174 4.8237 21.7841 4.69881 21.8821 4.6008C21.9801 4.50277 22.105 4.43601 22.2409 4.40897C22.3768 4.38193 22.5177 4.39581 22.6457 4.44888C22.7738 4.50193 22.8833 4.59177 22.9602 4.70704C23.0372 4.82231 23.0782 4.95781 23.0781 5.09641C23.078 5.28202 23.0042 5.45998 22.873 5.59125C22.7417 5.72253 22.5638 5.79639 22.3782 5.79664ZM22.3782 4.48363C22.257 4.4836 22.1386 4.51951 22.0378 4.5868C21.9371 4.6541 21.8585 4.74977 21.8121 4.8617C21.7657 4.97364 21.7535 5.09682 21.7772 5.21567C21.8008 5.33451 21.8591 5.44369 21.9447 5.52939C22.0304 5.61509 22.1396 5.67346 22.2584 5.69712C22.3772 5.72079 22.5004 5.70869 22.6124 5.66234C22.7243 5.616 22.82 5.53749 22.8874 5.43676C22.9547 5.33602 22.9907 5.21758 22.9907 5.09641C22.9906 4.93398 22.926 4.77823 22.8112 4.66335C22.6964 4.54847 22.5406 4.48383 22.3782 4.48363Z" fill="#231F20"/>
<path d="M22.123 4.6791H22.425C22.4545 4.67594 22.4843 4.67947 22.5123 4.68944C22.5403 4.69941 22.5656 4.71555 22.5865 4.73667C22.6073 4.75779 22.6231 4.78333 22.6327 4.81142C22.6424 4.8395 22.6456 4.86939 22.642 4.89886C22.642 5.00976 22.5928 5.09503 22.4995 5.10954V5.11117C22.5844 5.11984 22.629 5.16661 22.6333 5.28687C22.635 5.34109 22.6358 5.40834 22.6384 5.46067C22.6384 5.47539 22.6421 5.48987 22.6492 5.50278C22.6563 5.51569 22.6665 5.52661 22.6789 5.53456H22.5246C22.5099 5.51194 22.5019 5.48561 22.5016 5.45863C22.4968 5.40753 22.498 5.35926 22.4957 5.29717C22.4935 5.2039 22.4648 5.16309 22.3711 5.16309H22.2595V5.53456H22.123V4.6791ZM22.3687 5.06005C22.3873 5.06176 22.4059 5.05932 22.4234 5.05291C22.4409 5.04652 22.4568 5.03631 22.4698 5.02304C22.4829 5.00977 22.4929 4.99377 22.4989 4.97619C22.5051 4.9586 22.5072 4.93988 22.5052 4.92136C22.5052 4.83013 22.4658 4.78213 22.3759 4.78213H22.2595V5.06005H22.3687Z" fill="#231F20"/>
</g>
</g>
</g>
<defs>
<clipPath id="clip0_1_3214">
<rect width="24.75" height="24" fill="white"/>
</clipPath>
<clipPath id="clip1_1_3214">
<rect width="24.75" height="24" fill="white"/>
</clipPath>
<clipPath id="clip2_1_3214">
<rect width="24.75" height="24" fill="white"/>
</clipPath>
</defs>
</svg>
