<svg width="134" height="24" viewBox="0 0 134 24" fill="none" xmlns="http://www.w3.org/2000/svg">
<g clip-path="url(#clip0_1_3192)">
<mask id="mask0_1_3192" style="mask-type:luminance" maskUnits="userSpaceOnUse" x="0" y="-1" width="134" height="25">
<path d="M133.266 -0.000976562H0V23.999H133.266V-0.000976562Z" fill="white"/>
</mask>
<g mask="url(#mask0_1_3192)">
<path d="M58.9794 17.4453V12.4418C59.0068 12.0205 58.944 11.5982 58.7951 11.203C58.6463 10.8079 58.4149 10.4491 58.1163 10.1506C57.8178 9.85205 57.459 9.62063 57.0639 9.47179C56.6688 9.32296 56.2465 9.26013 55.8251 9.2875C55.2702 9.24459 54.7139 9.35329 54.2159 9.602C53.7179 9.8507 53.2969 10.2301 52.9978 10.6995C52.7181 10.2617 52.3316 9.90221 51.8747 9.6549C51.4178 9.40759 50.9055 9.28058 50.386 9.28582C49.9336 9.26563 49.4838 9.36571 49.0826 9.57585C48.6814 9.786 48.3431 10.0987 48.102 10.4822V9.50487H46.3623V17.4453H48.1063V12.986C48.0661 12.7148 48.0882 12.438 48.1707 12.1765C48.2533 11.915 48.3942 11.6757 48.5828 11.4767C48.7713 11.2776 49.0027 11.124 49.2593 11.0275C49.516 10.9309 49.7912 10.894 50.0642 10.9194C51.2605 10.9194 51.8039 11.6776 51.8039 12.986V17.4453H53.5445V12.986C53.5044 12.7148 53.5265 12.438 53.609 12.1765C53.6916 11.915 53.8324 11.6757 54.021 11.4767C54.2096 11.2776 54.441 11.124 54.6976 11.0275C54.9542 10.9309 55.2295 10.894 55.5025 10.9194C56.6988 10.9194 57.2422 11.6776 57.2422 12.986V17.4453H58.9794ZM84.7596 9.50487H81.9288V7.1122H80.1883V9.50487H78.5572V11.1368H80.1883V14.7258C80.1883 16.575 80.9465 17.6627 82.9078 17.6627C83.6815 17.6646 84.4384 17.4374 85.0831 17.0098L84.5389 15.4874C84.092 15.7935 83.5577 15.9461 83.0165 15.9221C82.1462 15.9221 81.8202 15.3787 81.8202 14.6171V11.0281H84.7546L84.7596 9.50487ZM99.4425 9.2875C99.0222 9.28233 98.6084 9.39075 98.2446 9.60133C97.8808 9.8119 97.5807 10.1168 97.3759 10.4838V9.50487H95.6362V17.4453H97.3759V12.986C97.3759 11.6802 97.9201 10.9194 99.1165 10.9194C99.4876 10.9393 99.8539 11.0125 100.204 11.1368L100.748 9.50487C100.323 9.3798 99.8847 9.30681 99.4425 9.2875ZM77.2522 10.1578C76.2577 9.59136 75.1337 9.29157 73.9892 9.2875C72.0313 9.2875 70.7263 10.2665 70.7263 11.7889C70.7263 13.0947 71.7052 13.8555 73.445 14.1824L74.2032 14.291C75.1822 14.3997 75.6169 14.7258 75.6169 15.1605C75.6169 15.8134 74.9648 16.1395 73.7685 16.1395C72.8199 16.1861 71.8882 15.8759 71.1568 15.27L70.3985 16.575C71.4261 17.2734 72.6374 17.6518 73.8797 17.6627C76.1637 17.6627 77.4687 16.575 77.4687 15.051C77.4687 13.6373 76.3811 12.8757 74.7491 12.6583L73.8805 12.553C73.1223 12.4443 72.5747 12.3356 72.5747 11.7948C72.5747 11.2539 73.1189 10.8166 74.0979 10.8166C74.9741 10.8135 75.8361 11.0382 76.5993 11.4687L77.2522 10.1578ZM123.368 9.2875C122.948 9.28224 122.534 9.39062 122.17 9.60121C121.807 9.81179 121.506 10.1167 121.302 10.4838V9.50487H119.561V17.4453H121.302V12.986C121.302 11.6802 121.845 10.9194 123.042 10.9194C123.413 10.9393 123.78 11.0125 124.13 11.1368L124.673 9.50487C124.249 9.3798 123.811 9.30681 123.368 9.2875ZM101.183 13.5294C101.158 14.088 101.252 14.6456 101.458 15.1654C101.664 15.6853 101.977 16.1558 102.378 16.546C102.778 16.9363 103.257 17.2375 103.782 17.4299C104.307 17.6224 104.866 17.7017 105.424 17.6627C106.454 17.6888 107.459 17.3411 108.252 16.6837L107.382 15.27C106.795 15.7427 106.069 16.0091 105.316 16.0283C104.989 16.0406 104.663 15.9834 104.36 15.8605C104.057 15.7377 103.783 15.552 103.557 15.3156C103.331 15.0792 103.157 14.7976 103.048 14.4892C102.939 14.1809 102.896 13.8529 102.923 13.5269C102.896 13.2015 102.939 12.8741 103.048 12.5664C103.158 12.2587 103.331 11.9776 103.556 11.7416C103.782 11.5055 104.055 11.3199 104.357 11.197C104.66 11.074 104.985 11.0164 105.311 11.0281C105.689 11.0123 106.066 11.0712 106.42 11.2013C106.775 11.3314 107.1 11.5302 107.378 11.7863L108.248 10.3726C107.446 9.73122 106.447 9.38553 105.42 9.39366C104.858 9.33617 104.291 9.40269 103.757 9.58851C103.224 9.77433 102.738 10.0749 102.333 10.4691C101.929 10.8633 101.616 11.3414 101.416 11.8698C101.217 12.3981 101.136 12.9638 101.179 13.5269M117.275 13.5269V9.50487H115.536V10.4838C115.24 10.1037 114.86 9.79759 114.426 9.58992C113.992 9.38225 113.515 9.2787 113.034 9.2875C112.502 9.29205 111.977 9.40371 111.49 9.61581C111.002 9.82791 110.563 10.1361 110.197 10.5219C109.832 10.9078 109.548 11.3634 109.363 11.8614C109.177 12.3595 109.094 12.8899 109.119 13.4208C109.094 13.9517 109.177 14.482 109.363 14.9801C109.548 15.4782 109.832 15.9337 110.197 16.3196C110.563 16.7054 111.002 17.0136 111.49 17.2257C111.977 17.4378 112.502 17.5495 113.034 17.554C113.515 17.5628 113.992 17.4593 114.426 17.2516C114.86 17.0439 115.24 16.7379 115.536 16.3577V17.3358H117.275L117.275 13.5269ZM110.858 13.5269C110.831 13.2008 110.874 12.8727 110.983 12.5642C111.092 12.2558 111.266 11.9741 111.492 11.7376C111.718 11.5012 111.992 11.3155 112.296 11.1927C112.599 11.07 112.925 11.013 113.252 11.0256C113.576 11.0223 113.898 11.0856 114.197 11.2116C114.496 11.3376 114.766 11.5235 114.99 11.758C115.214 11.9924 115.388 12.2703 115.501 12.5746C115.613 12.8789 115.662 13.203 115.644 13.5269C115.658 13.8496 115.606 14.1717 115.492 14.4739C115.378 14.776 115.204 15.052 114.98 15.2851C114.757 15.5182 114.488 15.7038 114.191 15.8305C113.894 15.9572 113.574 16.0225 113.251 16.0225C112.928 16.0225 112.609 15.9572 112.312 15.8305C112.014 15.7038 111.746 15.5182 111.523 15.2851C111.299 15.052 111.125 14.776 111.011 14.4739C110.897 14.1717 110.845 13.8496 110.858 13.5269ZM90.0841 9.28498C89.55 9.28033 89.0207 9.38577 88.5291 9.59471C88.0375 9.80365 87.5943 10.1116 87.2269 10.4994C86.8596 10.8872 86.5761 11.3465 86.3941 11.8487C86.2121 12.3509 86.1355 12.8851 86.1691 13.4182C86.1382 13.9599 86.2204 14.502 86.4103 15.0102C86.6001 15.5184 86.8936 15.9815 87.2721 16.3702C87.6506 16.7589 88.1057 17.0646 88.6087 17.268C89.1117 17.4714 89.6514 17.5679 90.1937 17.5515C91.3766 17.592 92.5346 17.206 93.4566 16.4638L92.5897 15.1647C91.9473 15.7024 91.143 16.0088 90.3057 16.035C89.7353 16.0624 89.1749 15.8774 88.7329 15.5158C88.2908 15.1542 87.9984 14.6416 87.9122 14.0771H93.786V13.4208C93.8947 11.0281 92.3723 9.2875 90.0875 9.2875M90.0875 10.9194C90.3475 10.9085 90.6069 10.9516 90.8494 11.046C91.0918 11.1405 91.312 11.2843 91.496 11.4682C91.6801 11.6522 91.8239 11.8723 91.9185 12.1147C92.0131 12.3571 92.0563 12.6165 92.0455 12.8765H88.0217C88.0236 12.6108 88.0791 12.3481 88.185 12.1044C88.2908 11.8606 88.4449 11.6407 88.6378 11.458C88.8307 11.2752 89.0586 11.1333 89.3077 11.0407C89.5568 10.9482 89.8221 10.9069 90.0875 10.9194ZM133.268 13.5311V6.35059H131.527V10.4838C131.232 10.1036 130.852 9.79752 130.418 9.58984C129.984 9.38216 129.507 9.27864 129.026 9.2875C128.494 9.29193 127.969 9.40351 127.482 9.61556C126.994 9.82761 126.555 10.1358 126.189 10.5216C125.823 10.9075 125.539 11.3631 125.354 11.8612C125.169 12.3594 125.086 12.8898 125.11 13.4208C125.086 13.9517 125.169 14.4821 125.354 14.9803C125.539 15.4784 125.823 15.934 126.189 16.3199C126.555 16.7057 126.994 17.0139 127.482 17.226C127.969 17.438 128.494 17.5496 129.026 17.554C129.507 17.5629 129.984 17.4594 130.418 17.2517C130.852 17.044 131.232 16.7379 131.527 16.3577V17.3358H133.268V13.5311ZM126.85 13.5311C126.823 13.2051 126.866 12.877 126.975 12.5685C127.084 12.2601 127.258 11.9783 127.484 11.7419C127.71 11.5054 127.984 11.3197 128.287 11.1969C128.59 11.0742 128.916 11.0172 129.243 11.0298C129.567 11.0265 129.889 11.0898 130.188 11.2158C130.487 11.3418 130.757 11.5278 130.981 11.7622C131.205 11.9966 131.379 12.2746 131.492 12.5788C131.604 12.8831 131.653 13.2072 131.636 13.5311C131.651 13.8546 131.6 14.1777 131.486 14.481C131.373 14.7842 131.199 15.0613 130.975 15.2954C130.752 15.5296 130.483 15.716 130.185 15.8433C129.887 15.9707 129.567 16.0363 129.243 16.0363C128.919 16.0363 128.599 15.9707 128.301 15.8433C128.003 15.716 127.735 15.5296 127.511 15.2954C127.287 15.0613 127.113 14.7842 127 14.481C126.886 14.1777 126.836 13.8546 126.85 13.5311ZM68.6613 13.5311V9.50487H66.9191V10.4838C66.6239 10.1036 66.2441 9.79752 65.8099 9.58984C65.3756 9.38216 64.899 9.27864 64.4177 9.2875C63.8862 9.29193 63.361 9.40351 62.8736 9.61556C62.3862 9.82761 61.9466 10.1358 61.581 10.5216C61.2155 10.9075 60.9315 11.3631 60.7461 11.8612C60.5606 12.3594 60.4776 12.8898 60.5018 13.4208C60.4776 13.9517 60.5606 14.4821 60.7461 14.9803C60.9315 15.4784 61.2155 15.934 61.581 16.3199C61.9466 16.7057 62.3862 17.0139 62.8736 17.226C63.361 17.438 63.8862 17.5496 64.4177 17.554C64.899 17.5629 65.3756 17.4594 65.8099 17.2517C66.2441 17.044 66.6239 16.7379 66.9191 16.3577V17.3358H68.663L68.6613 13.5311ZM62.2441 13.5311C62.217 13.2051 62.2595 12.877 62.3686 12.5685C62.4778 12.2601 62.6512 11.9783 62.8774 11.7419C63.1035 11.5054 63.3773 11.3197 63.6806 11.1969C63.9839 11.0742 64.3098 11.0172 64.6367 11.0298C64.9611 11.0265 65.2828 11.0898 65.5817 11.2158C65.8807 11.3418 66.1506 11.5278 66.3749 11.7622C66.5991 11.9966 66.7729 12.2746 66.8855 12.5788C66.9981 12.8831 67.0471 13.2072 67.0294 13.5311C67.0443 13.8546 66.9934 14.1777 66.8799 14.481C66.7664 14.7842 66.5925 15.0613 66.3689 15.2954C66.1452 15.5296 65.8764 15.716 65.5787 15.8433C65.281 15.9707 64.9606 16.0363 64.6367 16.0363C64.3129 16.0363 63.9925 15.9707 63.6948 15.8433C63.3971 15.716 63.1283 15.5296 62.9046 15.2954C62.681 15.0613 62.5071 14.7842 62.3936 14.481C62.2801 14.1777 62.2292 13.8546 62.2441 13.5311Z" fill="white"/>
<path d="M19.2829 21.3614C19.3318 21.3985 19.3748 21.4347 19.4236 21.4718H19.1709C17.7671 20.3272 16.6374 18.8828 15.8648 17.2446C15.0921 15.6064 14.696 13.816 14.7057 12.0047C14.6917 10.2122 15.0835 8.43981 15.8519 6.82028C16.6202 5.20074 17.7451 3.77609 19.1422 2.65308H19.4978C20.1285 3.21931 20.7087 3.83949 21.2316 4.50655C22.2156 5.73947 22.9459 7.15492 23.3805 8.67133C23.815 10.1878 23.9452 11.7752 23.7635 13.3421C23.5818 14.9091 23.0918 16.4246 22.3219 17.8013C21.5519 19.1781 20.517 20.3889 19.277 21.3639" fill="#FF5A00"/>
<path d="M19.1727 21.4717C17.0761 23.1095 14.4921 23.9992 11.8316 23.9992C9.17117 23.9992 6.58713 23.1095 4.49059 21.4717C2.02916 19.4718 0.44636 16.5894 0.0796553 13.4392C-0.287049 10.289 0.591357 7.12021 2.52759 4.60839C3.49188 3.37223 4.69031 2.33818 6.05438 1.56534C7.41845 0.792506 8.92144 0.29602 10.4775 0.104256C12.0335 -0.087508 13.612 0.0292081 15.1229 0.447735C16.6338 0.866262 18.0474 1.5784 19.283 2.54345C19.2401 2.58052 19.1912 2.61085 19.1482 2.65382C17.7511 3.77683 16.6262 5.20148 15.8579 6.82102C15.0895 8.44055 14.6977 10.213 14.7117 12.0055C14.702 13.8167 15.0981 15.6071 15.8707 17.2453C16.6434 18.8835 17.7731 20.3279 19.1769 21.4725" fill="#EB001B"/>
<path d="M38.5296 12.0047C38.538 13.5688 38.238 15.1192 37.6468 16.5673C37.0556 18.0154 36.1849 19.3328 35.0844 20.4442C33.9838 21.5556 32.6751 22.4393 31.2328 23.0446C29.7906 23.65 28.2433 23.9652 26.6792 23.9723C24.0469 23.987 21.488 23.1052 19.4237 21.4718C19.3748 21.4347 19.3318 21.3985 19.283 21.3614C20.5228 20.3864 21.5576 19.1756 22.3275 17.799C23.0974 16.4223 23.5873 14.9069 23.769 13.34C23.9507 11.7732 23.8205 10.1858 23.3861 8.6695C22.9516 7.15317 22.2214 5.73778 21.2375 4.50489C20.7145 3.83763 20.1341 3.21744 19.5028 2.65141L19.283 2.43068C21.0686 1.09987 23.1881 0.290047 25.4062 0.0911296C27.6243 -0.107787 29.8542 0.311991 31.8481 1.30385C33.842 2.2957 35.522 3.82082 36.7015 5.70982C37.881 7.59883 38.5138 9.77779 38.5296 12.0047Z" fill="#F79E1B"/>
</g>
</g>
<defs>
<clipPath id="clip0_1_3192">
<rect width="133.266" height="24" fill="white"/>
</clipPath>
</defs>
</svg>
