<svg width="74" height="24" viewBox="0 0 74 24" fill="none" xmlns="http://www.w3.org/2000/svg">
<g clip-path="url(#clip0_1_3181)">
<mask id="mask0_1_3181" style="mask-type:luminance" maskUnits="userSpaceOnUse" x="0" y="0" width="74" height="24">
<path d="M73.6272 0H0V24H73.6272V0Z" fill="white"/>
</mask>
<g mask="url(#mask0_1_3181)">
<path d="M73.6263 23.4884H68.0747C67.9035 22.5487 67.6477 21.5243 67.4765 20.5847C67.3918 20.1576 67.3062 19.9864 66.7936 20.072H60.1312C59.7897 20.072 59.6185 20.1576 59.5339 20.4991C59.1915 21.4387 58.85 22.2928 58.5104 23.2325C58.4248 23.3181 58.3393 23.4884 58.169 23.4884H52.1011C52.4435 22.5487 52.8705 21.6946 53.2119 20.8405C55.7751 14.607 58.3346 8.45626 60.9852 2.22087C61.1663 1.63053 61.5458 1.12092 62.0596 0.778411C62.5733 0.435899 63.1897 0.281548 63.8043 0.341514H68.6729C68.8432 1.11 69.0144 1.8785 69.1856 2.56232C70.4667 8.71211 71.7478 14.7763 73.029 20.9261C73.1989 21.6946 73.3698 22.4634 73.5416 23.2325C73.5869 23.3111 73.6158 23.3982 73.6263 23.4884ZM66.3693 15.2889C65.7714 12.4699 65.1735 9.65117 64.5756 6.83275L61.4979 15.2889H66.3693Z" fill="#1534CC"/>
<path d="M49.455 0C50.2235 0.171189 50.9074 0.255854 51.6758 0.427043C52.3587 0.598232 52.957 0.768491 53.7227 1.02528C53.2956 2.64785 52.9542 4.27043 52.6127 5.89394C51.673 5.63715 50.819 5.2957 49.8793 5.12452C48.6445 4.82577 47.3563 4.82577 46.1215 5.12452C45.5963 5.29456 45.1048 5.55494 44.6692 5.89394C44.5105 6.01321 44.3817 6.16777 44.293 6.34538C44.2043 6.523 44.1581 6.71882 44.1581 6.91735C44.1581 7.11589 44.2043 7.3117 44.293 7.48932C44.3817 7.66694 44.5105 7.82149 44.6692 7.94077C45.1455 8.35815 45.6601 8.72977 46.2062 9.05071C47.4026 9.82013 48.6838 10.4174 49.8793 11.1906C50.5727 11.6218 51.1671 12.1947 51.6234 12.8719C52.0798 13.549 52.3877 14.315 52.5271 15.1196C52.7334 16.4889 52.5363 17.8886 51.9598 19.1477C51.3833 20.4067 50.4525 21.4705 49.2811 22.209C47.678 23.1941 45.8619 23.7799 43.9853 23.9172C41.3917 24.1507 38.7777 23.8603 36.2986 23.0631C36.1274 22.9775 35.9571 22.9775 35.7859 22.8919C35.7003 22.8919 35.7003 22.8063 35.6147 22.8063C35.9571 21.0982 36.2986 19.4756 36.7256 17.7674C37.1527 17.9377 37.5797 18.1089 37.9212 18.2791C39.8235 19.1241 41.9322 19.3917 43.9853 19.0485C44.5452 18.9466 45.0725 18.7121 45.5233 18.3647C45.7588 18.2297 45.9571 18.0384 46.1005 17.808C46.2439 17.5775 46.3278 17.315 46.3448 17.0441C46.3618 16.7732 46.3112 16.5023 46.1977 16.2557C46.0842 16.0091 45.9113 15.7946 45.6944 15.6313C45.074 15.1282 44.4172 14.6717 43.7295 14.2655C42.6196 13.5816 41.5087 13.069 40.4834 12.3005C39.8342 11.8671 39.285 11.3 38.8727 10.6371C38.4603 9.97432 38.1943 9.23107 38.0923 8.45713C37.9543 7.31031 38.1184 6.14733 38.5683 5.08347C39.0183 4.0196 39.7384 3.09179 40.6574 2.392C42.3016 1.09891 44.2941 0.325668 46.3801 0.171189C46.4657 0.171189 46.636 0.0855947 46.7216 0.0855947C47.6613 0 48.5154 0 49.455 0Z" fill="#1534CC"/>
<path d="M27.9308 0.426924C27.5885 1.19542 27.3317 1.87924 26.9902 2.64773C24.1721 9.48042 21.2675 16.314 18.4494 23.1467C18.2782 23.4891 18.107 23.5738 17.8521 23.5738H12.467C12.3205 23.5829 12.1762 23.5345 12.0647 23.439C11.9532 23.3435 11.8833 23.2083 11.8697 23.0621C10.3334 17.0828 8.79578 11.1036 7.25694 5.1244C7.16504 4.61275 6.94474 4.13282 6.61668 3.72958C6.28862 3.32634 5.86354 3.013 5.3813 2.81892C3.7325 2.08381 2.01587 1.5114 0.255854 1.10982C0.209458 1.11531 0.162422 1.11039 0.118165 1.09543C0.0739074 1.08046 0.0335411 1.05582 0 1.0233C0 0.34133 0 0.34133 0.683827 0.34133H10.1634C10.8493 0.307755 11.5222 0.536207 12.0458 0.980379C12.5695 1.42455 12.9047 2.05121 12.9834 2.73333C13.7519 6.92002 14.606 11.1895 15.3745 15.3744C15.3745 15.5455 15.4591 15.7158 15.4591 15.9726C15.5447 15.8014 15.6303 15.7158 15.6303 15.6302C17.5944 10.6769 19.5602 5.63703 21.5243 0.682778C21.5534 0.573328 21.6214 0.478258 21.7156 0.415396C21.8098 0.352534 21.9237 0.326199 22.036 0.34133H27.5029C27.6343 0.410471 27.7829 0.440193 27.9308 0.426924Z" fill="#1534CC"/>
<path d="M25.5388 23.5738C27.1614 15.8015 28.7849 8.19937 30.4931 0.427002H36.4707C36.2149 1.62254 35.9581 2.73248 35.7023 3.92894C34.3365 10.249 32.9697 16.6537 31.6886 22.9756C31.603 23.4027 31.4328 23.5738 31.0057 23.5738H25.5388Z" fill="#1534CC"/>
</g>
</g>
<defs>
<clipPath id="clip0_1_3181">
<rect width="73.6272" height="24" fill="white"/>
</clipPath>
</defs>
</svg>
